<svg width="739" height="741" viewBox="0 0 739 741" fill="none" xmlns="http://www.w3.org/2000/svg">
<g clip-path="url(#clip0_525_454)">
<path d="M369.496 740.946C169.277 743.627 5.55957 578.029 0.175711 385.402C-2.8356 277.563 32.3633 184.628 108.096 108.413C175.988 40.0764 258.905 3.65671 355.681 0.262746C458.236 -3.30183 547.729 29.6629 622.209 99.8882C698.495 171.832 737.922 261.05 738.975 366.671C740.021 469.782 704.202 558.317 632.241 631.327C560.279 704.337 472.075 740.568 369.496 740.946ZM369.679 1.32298C166.686 0.908635 -0.609055 167.042 1.3194 374.379C3.20527 574.27 165.372 741.013 372.264 739.709C572.854 738.441 737.947 576.201 737.843 370.022C737.734 164.873 571.917 1.21939 369.679 1.34735V1.32298Z" fill="white"/>
<path d="M342.219 396.905H350.127C350.371 419.329 356.095 440.168 368.572 459.788V324.036C366.991 325.419 365.439 326.601 364.083 327.972C341.288 351.047 327.241 378.546 322.49 410.719C318.408 438.407 321.79 465.156 333.16 490.675C337.103 499.517 342.407 507.773 347.365 516.133C349.853 520.337 349.92 523.226 346.082 527.881C324.066 499.242 312.738 467.149 312.945 431.186C313.304 369.595 348.88 326.156 376.116 307.767C376.201 309.058 376.329 310.088 376.329 311.118C376.329 367.889 376.651 424.66 376.146 481.419C375.958 503.593 369.588 524.633 359.331 544.278C340.436 580.527 311.589 605.528 273.336 619.548C260.962 624.082 248.083 626.641 234.882 627.774C204.234 630.401 175.435 624.119 148.424 609.799C123.323 596.416 100.548 579.053 80.9829 558.384C50.4156 526.293 28.9207 488.961 16.4983 446.389C11.954 430.906 8.5533 415.143 7.37311 399.014C6.52751 387.497 5.54808 375.926 5.78533 364.404C6.7891 310.758 18.7796 259.648 42.2313 211.31C55.8616 183.159 73.0483 156.881 93.3689 133.12C128.531 91.9906 170.722 60.2668 219.941 37.9491C245.028 26.5474 271.354 18.1064 298.387 12.796C313.377 9.84072 328.446 7.47043 343.727 6.80017C355.274 6.26396 366.832 5.42917 378.312 5.74602C426.59 7.06218 472.916 17.3538 517.094 37.029C548.637 51.0427 578.034 69.472 604.404 91.7651C618.959 104.081 632.509 117.541 644.925 132.017C686.398 180.173 714.602 238.338 726.748 300.759C738.842 362.781 734.6 426.888 714.441 486.769C702.274 522.939 685.076 556.465 662.367 587.083C623.404 639.616 573.974 679.019 514.076 705.293C489.694 716.05 464.144 723.925 437.942 728.759C423.139 731.409 408.202 733.239 393.198 734.243C378.655 735.277 364.065 735.463 349.501 734.797C320.426 733.326 291.648 728.227 263.833 719.619C238.524 711.876 214.129 701.405 191.075 688.391C189.761 687.647 188.502 686.825 187.34 686.106C187.34 685.661 187.273 685.429 187.34 685.271C190.424 678.867 190.382 678.94 196.465 682.328C251.062 712.764 312.684 728.296 375.161 727.369C406.132 726.819 436.902 722.258 466.704 713.8C532.077 695.265 590.771 658.341 635.825 607.405C680.938 556.509 710.519 493.713 721.054 426.476C724.278 405.759 726.018 384.969 725.537 364.05C724.491 318.96 715.682 275.435 698.326 233.709C684.144 199.422 664.716 167.558 640.74 139.262C616.389 110.488 587.597 85.8025 555.456 66.1428C511.802 39.346 462.893 22.2913 412.063 16.1412C393.875 13.8305 375.528 13.0296 357.208 13.7465C322.691 15.1967 288.964 21.156 256.15 32.2458C177.401 58.7678 110.41 112.073 66.8085 182.909C46.7331 215.429 32.0354 250.234 23.5186 287.5C20.2761 301.679 18.226 316.139 16.0907 330.555C13.7547 346.331 13.1889 362.241 13.7303 378.181C14.8253 410.359 21.2434 441.441 33.5867 471.25C44.2711 497.301 59.0979 521.446 77.491 542.749C100.608 569.431 127.692 591.081 159.569 606.417C174.672 613.658 190.95 618.124 207.628 619.603C243.35 622.924 276.098 614.546 305.499 594.091C336.981 572.155 356.856 542.121 365.117 504.659C367.234 495.044 367.55 485.027 368.53 475.18C368.538 473.896 368.109 472.647 367.313 471.64C354.355 454.451 346.629 435.08 343.545 413.863C342.736 408.385 342.657 402.804 342.219 396.905Z" fill="white"/>
<path d="M220.53 221.607C219.643 221.607 218.867 221.349 218.202 220.832C217.537 220.278 217.204 219.594 217.204 218.782V185.651C217.204 184.839 217.481 184.174 218.036 183.657C218.59 183.103 219.255 182.826 220.031 182.826H235.661C237.656 182.826 239.485 183.325 241.148 184.322C242.811 185.282 244.141 186.63 245.138 188.366C246.173 190.065 246.69 192.023 246.69 194.239C246.69 195.716 246.395 197.138 245.803 198.505C245.212 199.834 244.418 201.016 243.42 202.05C242.423 203.085 241.296 203.86 240.039 204.377L239.43 203.325C240.575 203.731 241.573 204.322 242.423 205.097C243.272 205.836 243.937 206.723 244.418 207.757C244.935 208.754 245.212 209.899 245.249 211.192C245.36 212.337 245.452 213.297 245.526 214.073C245.637 214.811 245.785 215.421 245.97 215.901C246.154 216.381 246.487 216.75 246.967 217.009C247.632 217.378 248.039 217.932 248.187 218.671C248.371 219.41 248.224 220.074 247.743 220.665C247.411 221.109 246.986 221.404 246.469 221.552C245.988 221.663 245.489 221.681 244.972 221.607C244.455 221.496 244.011 221.349 243.642 221.164C243.051 220.795 242.441 220.278 241.813 219.613C241.222 218.911 240.741 217.951 240.372 216.732C240.002 215.513 239.818 213.906 239.818 211.912C239.818 210.989 239.67 210.194 239.374 209.53C239.079 208.865 238.672 208.329 238.155 207.923C237.638 207.48 237.028 207.166 236.326 206.981C235.624 206.76 234.848 206.649 233.998 206.649H222.248L223.024 205.541V218.782C223.024 219.594 222.802 220.278 222.359 220.832C221.915 221.349 221.306 221.607 220.53 221.607ZM222.303 201.829H235.55C236.4 201.792 237.213 201.459 237.989 200.832C238.801 200.167 239.448 199.28 239.928 198.172C240.446 197.064 240.704 195.808 240.704 194.405C240.704 192.632 240.169 191.155 239.097 189.973C238.062 188.754 236.825 188.145 235.384 188.145H222.414L223.024 186.704V202.992L222.303 201.829Z" fill="white"/>
<path d="M269.846 222.161C266.779 222.161 264.119 221.533 261.865 220.278C259.611 218.985 257.856 217.23 256.599 215.014C255.38 212.761 254.77 210.194 254.77 207.314C254.77 204.063 255.417 201.293 256.71 199.003C258.04 196.676 259.758 194.904 261.865 193.685C263.971 192.429 266.206 191.801 268.571 191.801C270.382 191.801 272.1 192.17 273.726 192.909C275.351 193.611 276.792 194.608 278.049 195.901C279.342 197.157 280.358 198.652 281.097 200.388C281.836 202.087 282.224 203.953 282.261 205.984C282.224 206.723 281.928 207.332 281.374 207.812C280.82 208.292 280.173 208.532 279.434 208.532H257.874L256.544 203.823H277.384L276.331 204.82V203.435C276.257 202.143 275.832 201.016 275.056 200.056C274.28 199.059 273.319 198.302 272.174 197.784C271.028 197.23 269.827 196.953 268.571 196.953C267.463 196.953 266.391 197.138 265.356 197.507C264.359 197.84 263.453 198.394 262.641 199.169C261.865 199.945 261.236 200.979 260.756 202.272C260.313 203.528 260.091 205.097 260.091 206.981C260.091 209.013 260.516 210.785 261.366 212.3C262.216 213.814 263.361 214.996 264.802 215.845C266.243 216.658 267.832 217.064 269.569 217.064C270.936 217.064 272.063 216.935 272.95 216.676C273.836 216.381 274.575 216.03 275.167 215.624C275.758 215.218 276.275 214.83 276.718 214.46C277.273 214.128 277.827 213.962 278.381 213.962C279.046 213.962 279.601 214.202 280.044 214.682C280.487 215.125 280.709 215.661 280.709 216.289C280.709 217.101 280.303 217.84 279.49 218.505C278.492 219.465 277.106 220.315 275.333 221.053C273.596 221.792 271.767 222.161 269.846 222.161Z" fill="white"/>
<path d="M314.847 192.023C315.66 192.023 316.325 192.3 316.843 192.854C317.36 193.371 317.619 194.036 317.619 194.848V218.782C317.619 219.594 317.36 220.278 316.843 220.832C316.325 221.349 315.66 221.607 314.847 221.607C314.071 221.607 313.406 221.349 312.852 220.832C312.335 220.278 312.076 219.594 312.076 218.782V214.793L313.24 214.959C313.24 215.624 312.963 216.363 312.409 217.175C311.891 217.988 311.171 218.782 310.247 219.557C309.323 220.296 308.233 220.924 306.977 221.441C305.721 221.921 304.372 222.161 302.931 222.161C300.381 222.161 298.091 221.515 296.058 220.222C294.026 218.893 292.419 217.083 291.236 214.793C290.054 212.503 289.463 209.899 289.463 206.981C289.463 203.989 290.054 201.367 291.236 199.114C292.419 196.824 294.008 195.033 296.003 193.74C298.035 192.447 300.289 191.801 302.765 191.801C304.354 191.801 305.813 192.06 307.143 192.577C308.51 193.094 309.693 193.759 310.691 194.571C311.688 195.384 312.446 196.252 312.963 197.175C313.517 198.061 313.794 198.911 313.794 199.724L312.076 199.89V194.848C312.076 194.073 312.335 193.408 312.852 192.854C313.406 192.3 314.071 192.023 314.847 192.023ZM303.541 217.064C305.277 217.064 306.811 216.621 308.141 215.735C309.471 214.848 310.506 213.648 311.245 212.134C311.984 210.582 312.353 208.865 312.353 206.981C312.353 205.061 311.984 203.343 311.245 201.829C310.506 200.314 309.471 199.114 308.141 198.228C306.811 197.341 305.277 196.898 303.541 196.898C301.841 196.898 300.326 197.341 298.996 198.228C297.703 199.114 296.668 200.314 295.892 201.829C295.153 203.343 294.784 205.061 294.784 206.981C294.784 208.865 295.153 210.582 295.892 212.134C296.668 213.648 297.703 214.848 298.996 215.735C300.326 216.621 301.841 217.064 303.541 217.064Z" fill="white"/>
<path d="M351.489 180.61C352.301 180.61 352.967 180.868 353.484 181.385C354.001 181.903 354.26 182.586 354.26 183.435V218.782C354.26 219.594 354.001 220.278 353.484 220.832C352.967 221.349 352.301 221.607 351.489 221.607C350.713 221.607 350.047 221.349 349.493 220.832C348.976 220.278 348.717 219.594 348.717 218.782V214.793L349.881 214.848C349.881 215.513 349.604 216.27 349.05 217.12C348.533 217.932 347.812 218.726 346.888 219.502C345.965 220.278 344.874 220.924 343.618 221.441C342.362 221.921 341.013 222.161 339.572 222.161C337.023 222.161 334.732 221.515 332.699 220.222C330.667 218.893 329.06 217.101 327.877 214.848C326.695 212.558 326.104 209.936 326.104 206.981C326.104 204.026 326.695 201.422 327.877 199.169C329.06 196.88 330.649 195.088 332.644 193.796C334.676 192.466 336.93 191.801 339.406 191.801C340.958 191.801 342.399 192.06 343.729 192.577C345.096 193.094 346.279 193.759 347.276 194.571C348.274 195.384 349.05 196.252 349.604 197.175C350.158 198.061 350.435 198.911 350.435 199.724L348.717 199.89V183.435C348.717 182.623 348.976 181.958 349.493 181.441C350.047 180.887 350.713 180.61 351.489 180.61ZM340.182 217.064C341.955 217.064 343.489 216.621 344.782 215.735C346.112 214.848 347.147 213.648 347.886 212.134C348.625 210.619 348.994 208.902 348.994 206.981C348.994 205.061 348.625 203.343 347.886 201.829C347.147 200.314 346.112 199.114 344.782 198.228C343.452 197.341 341.918 196.898 340.182 196.898C338.482 196.898 336.967 197.341 335.637 198.228C334.344 199.114 333.309 200.314 332.533 201.829C331.794 203.343 331.425 205.061 331.425 206.981C331.425 208.902 331.794 210.619 332.533 212.134C333.309 213.648 334.344 214.848 335.637 215.735C336.967 216.621 338.482 217.064 340.182 217.064Z" fill="white"/>
<path d="M396.517 191.967C399.251 191.967 401.357 192.651 402.835 194.017C404.313 195.347 405.292 197.157 405.773 199.446L404.886 199.169L405.274 198.283C405.754 197.323 406.475 196.362 407.435 195.402C408.433 194.405 409.615 193.592 410.983 192.964C412.35 192.3 413.809 191.967 415.361 191.967C417.911 191.967 419.887 192.521 421.292 193.629C422.696 194.7 423.675 196.159 424.229 198.006C424.783 199.816 425.06 201.847 425.06 204.1V218.782C425.06 219.594 424.802 220.278 424.285 220.832C423.767 221.349 423.102 221.607 422.289 221.607C421.513 221.607 420.848 221.349 420.294 220.832C419.777 220.278 419.518 219.594 419.518 218.782V204.156C419.518 202.863 419.333 201.681 418.964 200.61C418.631 199.539 418.021 198.689 417.135 198.061C416.285 197.397 415.102 197.064 413.587 197.064C412.146 197.064 410.853 197.397 409.708 198.061C408.599 198.689 407.731 199.539 407.103 200.61C406.475 201.681 406.161 202.863 406.161 204.156V218.782C406.161 219.594 405.902 220.278 405.385 220.832C404.867 221.349 404.202 221.607 403.389 221.607C402.576 221.607 401.911 221.349 401.394 220.832C400.877 220.278 400.618 219.594 400.618 218.782V204.1C400.618 202.808 400.433 201.626 400.064 200.555C399.731 199.483 399.14 198.634 398.29 198.006C397.44 197.378 396.258 197.064 394.743 197.064C393.302 197.064 392.027 197.378 390.919 198.006C389.81 198.634 388.942 199.483 388.314 200.555C387.722 201.626 387.427 202.808 387.427 204.1V218.782C387.427 219.594 387.15 220.278 386.596 220.832C386.078 221.349 385.432 221.607 384.656 221.607C383.843 221.607 383.178 221.349 382.66 220.832C382.143 220.278 381.884 219.594 381.884 218.782V195.291C381.884 194.479 382.143 193.814 382.66 193.297C383.178 192.743 383.843 192.466 384.656 192.466C385.432 192.466 386.078 192.743 386.596 193.297C387.15 193.814 387.427 194.479 387.427 195.291V198.56L386.374 199.169C386.632 198.357 387.057 197.526 387.649 196.676C388.24 195.827 388.979 195.051 389.866 194.35C390.789 193.648 391.805 193.075 392.914 192.632C394.022 192.189 395.223 191.967 396.517 191.967Z" fill="white"/>
<path d="M462.968 207.037C462.968 209.991 462.321 212.614 461.028 214.904C459.735 217.157 457.98 218.929 455.763 220.222C453.546 221.515 451.052 222.161 448.28 222.161C445.509 222.161 443.015 221.515 440.798 220.222C438.581 218.929 436.808 217.157 435.477 214.904C434.184 212.614 433.537 209.991 433.537 207.037C433.537 204.045 434.184 201.422 435.477 199.169C436.808 196.88 438.581 195.088 440.798 193.796C443.015 192.466 445.509 191.801 448.28 191.801C451.052 191.801 453.546 192.466 455.763 193.796C457.98 195.088 459.735 196.88 461.028 199.169C462.321 201.422 462.968 204.045 462.968 207.037ZM457.426 207.037C457.426 205.005 457.019 203.251 456.206 201.773C455.393 200.259 454.285 199.077 452.881 198.228C451.514 197.341 449.98 196.898 448.28 196.898C446.581 196.898 445.029 197.341 443.625 198.228C442.221 199.077 441.112 200.259 440.299 201.773C439.486 203.251 439.08 205.005 439.08 207.037C439.08 208.994 439.486 210.73 440.299 212.244C441.112 213.759 442.221 214.941 443.625 215.79C445.029 216.64 446.581 217.064 448.28 217.064C449.98 217.064 451.514 216.64 452.881 215.79C454.285 214.941 455.393 213.759 456.206 212.244C457.019 210.73 457.426 208.994 457.426 207.037Z" fill="white"/>
<path d="M474.23 221.607C473.417 221.607 472.752 221.349 472.234 220.832C471.717 220.278 471.459 219.594 471.459 218.782V195.291C471.459 194.479 471.717 193.814 472.234 193.297C472.752 192.743 473.417 192.466 474.23 192.466C475.006 192.466 475.652 192.743 476.17 193.297C476.724 193.814 477.001 194.479 477.001 195.291V201.496L476.447 199.114C476.742 198.08 477.186 197.12 477.777 196.233C478.405 195.347 479.144 194.571 479.994 193.906C480.844 193.241 481.786 192.724 482.821 192.355C483.892 191.986 485.001 191.801 486.146 191.801C487.107 191.801 487.938 192.06 488.64 192.577C489.342 193.094 489.693 193.74 489.693 194.516C489.693 195.513 489.435 196.252 488.917 196.732C488.4 197.175 487.827 197.397 487.199 197.397C486.645 197.397 486.109 197.286 485.592 197.064C485.075 196.806 484.465 196.676 483.763 196.676C482.987 196.676 482.193 196.88 481.38 197.286C480.567 197.692 479.828 198.302 479.163 199.114C478.498 199.89 477.962 200.813 477.555 201.884C477.186 202.955 477.001 204.156 477.001 205.485V218.782C477.001 219.594 476.724 220.278 476.17 220.832C475.652 221.349 475.006 221.607 474.23 221.607Z" fill="white"/>
<path d="M509.176 222.161C506.109 222.161 503.448 221.533 501.194 220.278C498.941 218.985 497.185 217.23 495.929 215.014C494.71 212.761 494.1 210.194 494.1 207.314C494.1 204.063 494.747 201.293 496.04 199.003C497.37 196.676 499.088 194.904 501.194 193.685C503.301 192.429 505.536 191.801 507.901 191.801C509.711 191.801 511.43 192.17 513.055 192.909C514.681 193.611 516.122 194.608 517.379 195.901C518.672 197.157 519.688 198.652 520.427 200.388C521.166 202.087 521.554 203.953 521.591 205.984C521.554 206.723 521.258 207.332 520.704 207.812C520.15 208.292 519.503 208.532 518.764 208.532H497.204L495.874 203.823H516.713L515.66 204.82V203.435C515.587 202.143 515.162 201.016 514.386 200.056C513.61 199.059 512.649 198.302 511.504 197.784C510.358 197.23 509.157 196.953 507.901 196.953C506.792 196.953 505.721 197.138 504.686 197.507C503.689 197.84 502.783 198.394 501.97 199.169C501.194 199.945 500.566 200.979 500.086 202.272C499.643 203.528 499.421 205.097 499.421 206.981C499.421 209.013 499.846 210.785 500.696 212.3C501.546 213.814 502.691 214.996 504.132 215.845C505.573 216.658 507.162 217.064 508.899 217.064C510.266 217.064 511.393 216.935 512.279 216.676C513.166 216.381 513.905 216.03 514.496 215.624C515.088 215.218 515.605 214.83 516.048 214.46C516.603 214.128 517.157 213.962 517.711 213.962C518.376 213.962 518.93 214.202 519.374 214.682C519.817 215.125 520.039 215.661 520.039 216.289C520.039 217.101 519.633 217.84 518.82 218.505C517.822 219.465 516.436 220.315 514.663 221.053C512.926 221.792 511.097 222.161 509.176 222.161Z" fill="white"/>
</g>
<defs>
<clipPath id="clip0_525_454">
<rect width="739" height="741" fill="white"/>
</clipPath>
</defs>
</svg>
