<svg id="Layer_1" data-name="Layer 1" xmlns="http://www.w3.org/2000/svg" viewBox="0 0 555.08 590.77"><g id="Layer_2" data-name="Layer 2"><g id="Layer_1-2" data-name="Layer 1-2"><path d="M542.72,19.74s0,0,0,0a52,52,0,0,0-3.55-3.87c-.31-.32-.62-.62-.94-.91-1-.89-1.93-1.74-2.94-2.57l0,0c-1-.82-2.06-1.61-3.14-2.36l0,0c-1.09-.75-2.21-1.47-3.36-2.15a52.91,52.91,0,0,0-7.52-3.68c-1.18-.47-2.38-.91-3.6-1.3-1-.32-2-.61-3-.88-.68-.18-1.37-.35-2.07-.5A60.76,60.76,0,0,0,499.19,0H10.55Q9.14,0,7.94.09C2.9.47.52,2.07.08,5.33A9.08,9.08,0,0,0,0,6.74,9,9,0,0,0,.16,8.36C.74,11.52,3.09,12.8,8.34,13c.63,0,1.3,0,2,0H336.61q81.95,0,163.88.08c9.95,0,18.52,2.79,25.46,8.27a39.48,39.48,0,0,1,3,2.65,44.51,44.51,0,0,1,7.67,10.08c8.52,15,6.6,29.8-1.9,44.49Q480,173.27,425.65,268.09l-26.14,45.39q-5.86,10.15-11.78,20.43l-8.94,15.5c-1.07-1.75-1.87-3-2.58-4.24-.24-.39-.47-.77-.69-1.15q-30.43-52.59-60.9-105.19-5.17-9-10.37-17.91c-14.51-25-41.72-33.57-64.93-25.76l0,0q-2.46.82-4.86,1.9l0,0c-1,.47-2.08,1-3.1,1.52a52.61,52.61,0,0,0-6.15,3.81,58.3,58.3,0,0,0-16.57,18.49L175.34,278.4l-2.4,4.15L109,393.4l-3,5.28q-15.06,26.11-30.11,52.24-36.91,64-73.88,127.93c-2,3.39-2.75,6.5.37,9.46a7.3,7.3,0,0,0,1.53,1.15l0,0c3.23,1.8,6.86.31,9.43-4.17q7-12.22,14-24.45t14.05-24.43q89.49-154.93,179-309.86a41.15,41.15,0,0,1,20.6-18c.41-.18.83-.34,1.25-.48s.84-.31,1.27-.44.84-.28,1.27-.4c.78-.23,1.55-.43,2.32-.61.43-.1.87-.2,1.31-.28s.88-.17,1.32-.24.73-.12,1.1-.16c.53-.08,1-.14,1.57-.19s.9-.08,1.35-.11.74-.05,1.11-.06c1.08,0,2.16,0,3.24,0,.34,0,.68,0,1,.05s.89.06,1.34.11c.61.05,1.21.13,1.81.22.29,0,.57.08.86.13s.71.12,1.07.19l1.27.26h0l.94.23c.58.14,1.15.29,1.71.46l1.17.37a41.47,41.47,0,0,1,23.08,18.9c25.55,44,50.92,88.17,76.5,132.19,1.75,3,1.78,5.07,0,8.08q-41,70.85-81.72,141.84c-19.77,34.37,2.8,78,41,81.54q2.1.21,4.26.24,46.47.76,92.93,0c1.43,0,2.84-.1,4.22-.24,38.16-3.65,61.16-47.22,41.59-80.76-27.5-47.13-54.69-94.44-82.16-141.59-2.22-3.8-2.16-6.55.05-10.37q19.15-33.17,38.3-66.35c.63-1.08,1.25-2.16,1.87-3.24Q465.63,224.7,502,161.57c.64-1.09,1.27-2.19,1.89-3.28q19.11-33.21,38.2-66.42c5.56-9.65,11.38-19.13,12.61-30.63C556.42,45.26,551.76,30.67,542.72,19.74ZM398,409c20.4,35.24,40.67,70.6,61.23,105.77,16,27.41-2.59,62-34.43,62.55-30.64.59-61.41.55-91.93,0s-49.93-34.12-34.93-60.72c26.13-46.38,52.93-92.38,79.45-138.53a21.55,21.55,0,0,1,1.58-1.86h0C385.51,387.48,391.77,398.21,398,409Z"/><path d="M542.72,19.74s0,0,0,0a48.16,48.16,0,0,0-3.55-3.87c-.31-.32-.62-.62-.94-.91-1-.9-1.93-1.75-2.94-2.57l0,0c-1-.83-2.06-1.62-3.14-2.36l0,0c-1.09-.76-2.21-1.48-3.36-2.15a52.91,52.91,0,0,0-7.52-3.68c-1.18-.48-2.38-.91-3.6-1.3-1-.32-2-.61-3-.88-.68-.18-1.37-.35-2.07-.5A60.76,60.76,0,0,0,499.19,0H10.55Q9.14,0,7.94.09C2.92.49.53,2.14.08,5.33A9.08,9.08,0,0,0,0,6.74,9,9,0,0,0,.16,8.36C.76,11.45,3.1,12.78,8.34,13c.63,0,1.3,0,2,0H336.61q81.95-.13,163.88.08c9.95,0,18.52,2.79,25.46,8.27a36,36,0,0,1,3,2.65,44.51,44.51,0,0,1,7.67,10.08c8.52,15,6.6,29.8-1.9,44.49q-54.56,94.7-109.09,189.44l-26.14,45.39q-5.85,10.15-11.78,20.43l-8.94,15.5c-1.07-1.75-1.87-3-2.58-4.24q-.36-.59-.69-1.17-30.34-52.61-60.9-105.17l-10.41-17.91c-14.5-24.92-41.69-33.53-64.89-25.76l0,0q-2.46.84-4.86,1.9l0,0c-1.05.48-2.08,1-3.1,1.52a52.61,52.61,0,0,0-6.15,3.81,58.42,58.42,0,0,0-16.61,18.49q-16.59,28.74-33.17,57.48l-2.4,4.15L109,393.4l-3,5.28L75.78,450.92Q57.71,482.27,39.62,513.6l-1.5,2.6Q20,547.54,1.9,578.85c-2,3.39-2.75,6.46.37,9.46a8.49,8.49,0,0,0,1.57,1.15l0,0c3.24,1.75,6.83.25,9.39-4.17q7.05-12.22,14.07-24.45t14.1-24.43q89.48-154.93,179-309.86a41.43,41.43,0,0,1,15.62-15.66,43,43,0,0,1,4.93-2.39c.41-.17.83-.33,1.25-.48s.85-.3,1.27-.44.85-.28,1.27-.4c.78-.23,1.55-.43,2.32-.61.44-.1.87-.2,1.31-.28s.88-.17,1.32-.24.73-.12,1.1-.16c.53-.08,1-.14,1.57-.19s.9-.08,1.35-.11.74-.05,1.11-.06c1.08,0,2.16,0,3.24,0l1,.05c.45,0,.9.06,1.34.11.61.05,1.21.13,1.81.22.29,0,.57.08.86.13s.71.12,1.07.19.85.16,1.27.26h0l.94.23c.58.14,1.15.29,1.71.46.39.11.78.23,1.17.37a41.12,41.12,0,0,1,23.13,18.9c25.55,44,50.92,88.19,76.5,132.19,1.71,3,1.74,5.08,0,8.08Q328,437.64,287.23,508.59c-19.76,34.35,2.78,77.92,40.95,81.54q2.1.21,4.26.24,46.47.76,92.93,0c1.43,0,2.84-.1,4.22-.24,38.2-3.59,61.23-47.19,41.65-80.76-27.5-47.13-54.69-94.44-82.16-141.59-2.22-3.8-2.16-6.55.05-10.37q19.13-33.17,38.24-66.35c.63-1.08,1.25-2.16,1.87-3.24Q465.63,224.7,502,161.57c.64-1.09,1.27-2.19,1.89-3.28Q523,125.08,542.13,91.87c5.61-9.63,11.38-19.13,12.61-30.63C556.45,45.26,551.77,30.67,542.72,19.74ZM424.8,577.32c-30.64.59-61.41.55-91.93,0s-49.93-34.12-34.93-60.72c26.13-46.38,52.93-92.38,79.45-138.53a21.55,21.55,0,0,1,1.58-1.86h0c6.51,11.27,12.77,22,19,32.79,20.4,35.24,40.67,70.6,61.23,105.77C475.25,542.18,456.64,576.73,424.8,577.32Z"/></g></g></svg>