<svg width="287" height="288" viewBox="0 0 287 288" fill="none" xmlns="http://www.w3.org/2000/svg">
<path d="M143.499 287.978C65.7419 289.02 2.15996 224.658 0.0690692 149.791C-1.10041 107.878 12.5695 71.7574 41.9814 42.1354C68.3478 15.5755 100.55 1.42047 138.134 0.101361C177.962 -1.28406 212.718 11.5281 241.644 38.8222C271.27 66.7841 286.582 101.46 286.991 142.511C287.397 182.587 273.487 216.997 245.539 245.373C217.592 273.75 183.337 287.831 143.499 287.978ZM143.57 0.513435C64.7354 0.352395 -0.235705 64.9226 0.513236 145.507C1.24564 223.197 64.2251 288.004 144.574 287.497C222.476 287.005 286.592 223.948 286.552 143.814C286.509 64.0795 222.112 0.473175 143.57 0.522908V0.513435Z" fill="black"/>
<path d="M132.906 154.262H135.977C136.072 162.977 138.295 171.077 143.141 178.703V125.94C142.526 126.478 141.924 126.937 141.397 127.47C132.544 136.439 127.089 147.127 125.244 159.631C123.659 170.392 124.972 180.789 129.388 190.707C130.919 194.143 132.979 197.352 134.905 200.602C135.871 202.236 135.897 203.358 134.406 205.168C125.856 194.037 121.457 181.563 121.537 167.586C121.676 143.648 135.493 126.765 146.07 119.617C146.103 120.119 146.153 120.519 146.153 120.92C146.153 142.985 146.278 165.05 146.082 187.11C146.009 195.728 143.535 203.905 139.552 211.541C132.214 225.629 121.01 235.346 106.154 240.796C101.349 242.558 96.3471 243.552 91.2203 243.993C79.3176 245.013 68.1331 242.572 57.6432 237.006C47.8948 231.805 39.05 225.056 31.4516 217.023C19.5804 204.55 11.2326 190.041 6.40817 173.495C4.64331 167.477 3.32263 161.35 2.86428 155.082C2.53588 150.606 2.15551 146.108 2.24765 141.63C2.63748 120.78 7.29414 100.915 16.4019 82.1278C21.6954 71.1868 28.3701 60.9734 36.2618 51.7385C49.9176 35.7528 66.3029 23.423 85.4178 14.7489C95.1606 10.3174 105.384 7.0367 115.883 4.97274C121.705 3.82414 127.557 2.90289 133.492 2.64238C137.976 2.43398 142.465 2.10953 146.923 2.23268C165.673 2.74422 183.664 6.74419 200.821 14.3913C213.071 19.8379 224.488 27.0007 234.729 35.6652C240.381 40.452 245.644 45.6835 250.466 51.3098C266.572 70.0261 277.526 92.6326 282.243 116.894C286.939 140.999 285.292 165.916 277.463 189.189C272.738 203.247 266.059 216.277 257.239 228.178C242.108 248.595 222.911 263.91 199.649 274.121C190.18 278.302 180.257 281.363 170.081 283.242C164.332 284.272 158.531 284.983 152.704 285.373C147.056 285.775 141.39 285.847 135.734 285.589C124.442 285.017 113.266 283.035 102.464 279.689C92.6348 276.68 83.1605 272.61 74.2073 267.552C73.697 267.263 73.208 266.943 72.7567 266.664C72.7567 266.491 72.7307 266.401 72.7567 266.339C73.9545 263.85 73.938 263.879 76.3006 265.196C97.5039 277.025 121.436 283.062 145.699 282.702C157.727 282.488 169.677 280.715 181.251 277.428C206.64 270.224 229.434 255.873 246.931 236.076C264.452 216.294 275.94 191.888 280.031 165.755C281.283 157.703 281.959 149.623 281.772 141.493C281.366 123.968 277.945 107.051 271.205 90.8335C265.697 77.5076 258.152 65.1232 248.84 54.1257C239.383 42.9421 228.201 33.3478 215.719 25.7067C198.766 15.2918 179.771 8.66323 160.031 6.2729C152.967 5.37482 145.842 5.06352 138.727 5.34218C125.322 5.90583 112.224 8.22197 99.4799 12.5322C68.8967 22.8403 42.8802 43.5583 25.9468 71.0894C18.1502 83.7287 12.4422 97.2562 9.13459 111.74C7.87533 117.251 7.07914 122.871 6.24987 128.474C5.34264 134.606 5.12292 140.789 5.33319 146.985C5.75845 159.491 8.25098 171.572 13.0447 183.157C17.1941 193.282 22.9522 202.667 30.0955 210.946C39.0733 221.317 49.5915 229.731 61.9715 235.692C67.837 238.506 74.1587 240.242 80.6359 240.817C94.509 242.108 107.227 238.851 118.645 230.901C130.872 222.375 138.59 210.702 141.799 196.142C142.621 192.405 142.744 188.512 143.124 184.685C143.127 184.186 142.961 183.7 142.651 183.309C137.619 176.628 134.619 169.099 133.421 160.853C133.107 158.724 133.076 156.555 132.906 154.262Z" fill="black"/>
</svg>
