<svg width="426" height="428" viewBox="0 0 426 428" fill="none" xmlns="http://www.w3.org/2000/svg">
<path d="M212.711 427.217C97.4499 428.763 3.20173 333.282 0.102382 222.216C-1.63115 160.037 18.6319 106.452 62.2294 62.508C101.313 23.1063 149.046 2.10728 204.757 0.150369C263.796 -1.90491 315.315 17.102 358.191 57.5928C402.107 99.0744 424.804 150.516 425.41 211.416C426.012 270.868 405.392 321.916 363.966 364.012C322.54 406.109 271.763 426.999 212.711 427.217ZM212.816 0.761683C95.958 0.522779 -0.349387 96.3129 0.760775 215.86C1.84642 331.114 95.2016 427.255 214.304 426.504C329.779 425.773 424.818 332.228 424.759 213.348C424.696 95.0622 329.239 0.701957 212.816 0.775737V0.761683Z" fill="white"/>
<path d="M197.007 228.849H201.56C201.7 241.778 204.996 253.793 212.178 265.106V186.833C211.268 187.631 210.375 188.312 209.594 189.103C196.472 202.407 188.385 218.263 185.65 236.813C183.3 252.778 185.247 268.201 191.793 282.915C194.062 288.013 197.116 292.773 199.97 297.593C201.402 300.018 201.441 301.683 199.231 304.367C186.557 287.854 180.036 269.35 180.155 248.614C180.362 213.102 200.842 188.056 216.521 177.453C216.57 178.197 216.644 178.791 216.644 179.385C216.644 212.118 216.829 244.852 216.539 277.578C216.43 290.363 212.763 302.494 206.859 313.821C195.981 334.722 179.374 349.137 157.353 357.221C150.23 359.835 142.816 361.311 135.216 361.964C117.573 363.478 100.994 359.856 85.4448 351.6C70.9946 343.883 57.8838 333.872 46.6206 321.955C29.0238 303.451 16.6498 281.926 9.49849 257.38C6.88243 248.453 4.92476 239.364 4.24535 230.064C3.75856 223.424 3.19473 216.752 3.33131 210.109C3.90915 179.178 10.8118 149.708 24.3123 121.837C32.159 105.606 42.0529 90.4542 53.7509 76.7543C73.993 53.0395 98.2811 34.748 126.615 21.88C141.057 15.306 156.212 10.439 171.775 7.37708C180.404 5.67313 189.079 4.30646 197.876 3.91999C204.523 3.61082 211.177 3.1295 217.785 3.31219C245.578 4.07107 272.246 10.005 297.678 21.3495C315.837 29.4295 332.76 40.0556 347.94 52.9095C356.319 60.0107 364.12 67.7717 371.268 76.1183C395.142 103.884 411.379 137.421 418.371 173.412C425.333 209.173 422.891 246.136 411.286 280.663C404.282 301.518 394.382 320.848 381.308 338.502C358.879 368.792 330.423 391.511 295.941 406.66C281.905 412.863 267.197 417.403 252.113 420.19C243.591 421.718 234.992 422.774 226.355 423.352C217.983 423.949 209.584 424.055 201.199 423.672C184.462 422.824 167.895 419.884 151.883 414.92C137.313 410.456 123.269 404.418 109.998 396.914C109.241 396.486 108.517 396.012 107.848 395.597C107.848 395.34 107.809 395.207 107.848 395.116C109.623 391.423 109.599 391.465 113.101 393.419C144.531 410.968 180.005 419.923 215.971 419.389C233.8 419.071 251.514 416.442 268.671 411.565C306.304 400.878 340.092 379.588 366.029 350.219C391.999 320.874 409.028 284.667 415.093 245.899C416.949 233.953 417.951 221.966 417.674 209.905C417.072 183.906 412.001 158.811 402.009 134.752C393.845 114.983 382.66 96.6106 368.858 80.2957C354.84 63.7047 338.265 49.4715 319.763 38.136C294.632 22.6854 266.477 12.8519 237.215 9.30588C226.745 7.97357 216.183 7.51176 205.636 7.92516C185.766 8.76132 166.35 12.1973 147.46 18.5915C102.126 33.8837 63.5613 64.6189 38.4608 105.461C26.9039 124.212 18.4428 144.28 13.5399 165.767C11.6733 173.943 10.4931 182.28 9.26385 190.592C7.91905 199.688 7.59335 208.861 7.90504 218.052C8.53541 236.606 12.2301 254.527 19.3359 271.714C25.4866 286.735 34.022 300.657 44.6104 312.939C57.9184 328.324 73.5097 340.807 91.8606 349.65C100.555 353.824 109.926 356.4 119.527 357.253C140.091 359.167 158.943 354.337 175.869 342.543C193.992 329.895 205.433 312.578 210.189 290.978C211.408 285.434 211.59 279.658 212.154 273.98C212.159 273.24 211.912 272.52 211.453 271.939C203.994 262.028 199.546 250.859 197.771 238.626C197.305 235.468 197.26 232.249 197.007 228.849Z" fill="white"/>
</svg>
